# xmcd
#
# Track frame offsets:
#	150
#	17660
#	33343
#	53799
#	73203
#	90475
#	109349
#	126843
#	142556
#	163032
#	182336
#	199713
#
# Disc length: 2914 seconds
#
# Revision: 1
# Processed by: cddbd v1.5.1PL2 Copyright (c) Steve Scherf et al.
# Submitted via: audiograbber 1.83.01
#
DISCID=990b600c
DTITLE=Chartbuster - cb20201
DYEAR=1900
DGENRE=
TTITLE0=Messina, Jo Dee - Downtime
TTITLE1=Messina, Jo Dee - Dare To Dream
TTITLE2=Messina, Jo Dee - Burn
TTITLE3=Messina, Jo Dee - If Not You
TTITLE4=Messina, Jo Dee - Saturday Night
TTITLE5=Messina, Jo Dee - Bring On The Rain
TTITLE6=Messina, Jo Dee - Downtime (Vocal)
TTITLE7=Messina, Jo Dee - Dare To Dream (Vocal)
TTITLE8=Messina, Jo Dee - Burn (Vocal)
TTITLE9=Messina, Jo Dee - If Not You (Vocal)
TTITLE10=Messina, Jo Dee - Saturday Night (Vocal)
TTITLE11=Messina, Jo Dee - Bring On The Rain (Vocal)
EXTD=
EXTT0=
EXTT1=
EXTT2=
EXTT3=
EXTT4=
EXTT5=
EXTT6=
EXTT7=
EXTT8=
EXTT9=
EXTT10=
EXTT11=
PLAYORDER=
